<?xml version="1.0" standalone="no"?>
<!DOCTYPE svg PUBLIC "-//W3C//DTD SVG 1.1//EN" "http://www.w3.org/Graphics/SVG/1.1/DTD/svg11.dtd" >
<svg xmlns="http://www.w3.org/2000/svg">
<metadata>
Created by FontForge 20120731 at Fri Dec 16 13:38:38 2016
 By admin
</metadata>
<defs>
<font id="iconfont" horiz-adv-x="1024" >
  <font-face 
    font-family="iconfont"
    font-weight="500"
    font-stretch="normal"
    units-per-em="1024"
    panose-1="2 0 6 3 0 0 0 0 0 0"
    ascent="896"
    descent="-128"
    x-height="792"
    bbox="0 -212 1137 896"
    underline-thickness="0"
    underline-position="0"
    unicode-range="U+0078-E6ED"
  />
<missing-glyph 
 />
    <glyph glyph-name=".notdef" 
 />
    <glyph glyph-name=".notdef" 
 />
    <glyph glyph-name=".null" horiz-adv-x="0" 
 />
    <glyph glyph-name="nonmarkingreturn" horiz-adv-x="341" 
 />
    <glyph glyph-name="x" unicode="x" horiz-adv-x="1001" 
d="M281 543q-27 -1 -53 -1h-83q-18 0 -36.5 -6t-32.5 -18.5t-23 -32t-9 -45.5v-76h912v41q0 16 -0.5 30t-0.5 18q0 13 -5 29t-17 29.5t-31.5 22.5t-49.5 9h-133v-97h-438v97zM955 310v-52q0 -23 0.5 -52t0.5 -58t-10.5 -47.5t-26 -30t-33 -16t-31.5 -4.5q-14 -1 -29.5 -0.5
t-29.5 0.5h-32l-45 128h-439l-44 -128h-29h-34q-20 0 -45 1q-25 0 -41 9.5t-25.5 23t-13.5 29.5t-4 30v167h911zM163 247q-12 0 -21 -8.5t-9 -21.5t9 -21.5t21 -8.5q13 0 22 8.5t9 21.5t-9 21.5t-22 8.5zM316 123q-8 -26 -14 -48q-5 -19 -10.5 -37t-7.5 -25t-3 -15t1 -14.5
t9.5 -10.5t21.5 -4h37h67h81h80h64h36q23 0 34 12t2 38q-5 13 -9.5 30.5t-9.5 34.5q-5 19 -11 39h-368zM336 498v228q0 11 2.5 23t10 21.5t20.5 15.5t34 6h188q31 0 51.5 -14.5t20.5 -52.5v-227h-327z" />
    <glyph glyph-name="gongjudaoyou" unicode="&#xe60d;" 
d="M289 288q68 0 116.5 50.5t48.5 121.5t-48.5 121.5t-116.5 50.5t-116 -50.5t-48 -121.5t48 -121.5t116 -50.5zM293 220q-95 0 -162.5 -70.5t-67.5 -170.5v-62h392v234q-67 69 -162 69zM593 574v58h-69v-715h69v343l368 157z" />
    <glyph glyph-name="feiji" unicode="&#xe600;" 
d="M895 462h-227l-132 290q-8 14 -12 19.5t-13.5 15.5t-22.5 13.5t-31 3.5q-11 0 -18 -0.5t-20 -4.5t-20.5 -11.5t-13.5 -23.5t-6 -39l26 -263l-188 1l-66 109q-13 23 -35 22q-2 -1 -8 0t-13 -0.5t-13.5 -3.5t-11 -8.5t-4.5 -15.5l23 -182l-23 -181q0 -17 12 -23t38 -6
q9 0 15.5 3t8.5 6l10 15l67 107l187 1l-26 -263q0 -22 6 -38t13.5 -23.5t20.5 -12t20 -5t19 -0.5q17 0 30 4t22.5 14t13.5 15.5t12 19.5l133 289h227q35 1 62 23t27 54.5t-27 55.5t-62 23zM900 348h-266l-140 -301q-7 -12 -18 -21t-19 -9q-34 0 -32 29l45 301h-285l-69 -121
q0 9 5 48.5t10 76l5 36.5q0 1 -5 36t-10 73t-5 45l67 -115l287 -3l-45 300q-1 9 7 19t25 10q8 0 19 -9.5t17 -21.5l141 -299l266 -3q14 0 25.5 -11.5t11.5 -24t-11.5 -24t-25.5 -11.5z" />
    <glyph glyph-name="xiaoxi" unicode="&#xe613;" horiz-adv-x="1028" 
d="M278 -132l2 213q-107 23 -175 108t-68 195v41q0 128 91 219t220 91h332q129 0 220 -91t91 -219v-41q0 -128 -91 -219.5t-220 -91.5h-159zM348 694q-112 0 -190.5 -79t-78.5 -190v-41q0 -99 63.5 -174t161.5 -91l17 -3l1 -18l-1 -139l185 156h174q111 0 190 79t79 190v41
q0 111 -79 190t-190 79h-332zM343 393.5q0 12.5 8.5 21.5t20.5 9q13 0 21 -9t8 -21q0 -14 -8 -22t-21 -8q-13 1 -21 9t-8 20.5zM372 343h-1q-21 1 -34.5 15t-13.5 36q0 21 14.5 35.5t34.5 14.5q21 0 35.5 -14.5t14.5 -36t-14 -36t-36 -14.5zM372 403q-8 0 -8 -9t8 -9
q9 0 9 9t-9 9zM499 393.5q0 12.5 8 21.5t20 9q13 0 21.5 -9t8.5 -21q0 -14 -8.5 -22t-21.5 -8q-13 1 -20.5 9t-7.5 20.5zM527 343h-1q-21 1 -34.5 15t-13.5 36q0 21 14.5 35.5t34.5 14.5q21 0 35.5 -14.5t14.5 -36t-14 -36t-36 -14.5zM527 403q-8 0 -8 -9t9 -9q8 0 8 9t-9 9
zM654 393.5q0 12.5 8 21.5t20 9q13 0 21.5 -9t8.5 -21q0 -14 -8.5 -22t-21.5 -8q-13 1 -20.5 9t-7.5 20.5zM682 343v0q-22 1 -35.5 15t-13.5 36q0 21 14.5 35.5t34.5 14.5q22 0 36.5 -14.5t14.5 -36t-14.5 -36t-36.5 -14.5zM682 403q-7 0 -7 -9t8 -9t8 9t-9 9z" />
    <glyph glyph-name="rmb" unicode="&#xe61b;" 
d="M884 638q-4 -4 -17.5 -15t-16.5 -15q70 -102 70 -227q0 -109 -54 -202t-147 -147t-202.5 -54t-202.5 54t-147 147t-54 202.5t54 202.5t147 147t202 54q82 0 156 -31.5t130 -87.5q4 5 16 17l15 15q-62 62 -144 97t-173 35t-174 -35.5t-143 -95.5t-95.5 -143t-35.5 -174.5
t35.5 -174.5t95.5 -143t143 -95.5t174 -35.5t174 35.5t143.5 95.5t96 143t35.5 174q0 142 -81 257zM647 643l-84 -155q-33 -63 -41 -84h-1q-22 50 -126 239h-79l147 -253h-120v-55h141v-77h-141v-57h141v-112h70v112h137v57h-137v77h137v55h-117l148 253h-75z" />
    <glyph glyph-name="weixin" unicode="&#xe63b;" 
d="M499 467q20 0 32 12t12 32t-12 32t-32 12q-21 0 -37 -12.5t-16 -31.5t16 -31.5t37 -12.5zM253 555q-21 0 -37 -12.5t-16 -31.5t16 -31.5t37 -12.5q20 0 32 12t12 32t-12 32t-32 12zM1024 186q0 104 -84 182t-203 87v6q-24 111 -130 185t-240 74q-99 0 -184 -42
t-134 -114.5t-49 -158.5q0 -142 138 -243l-32 -94q-3 -10 5 -17q4 -4 10 -4q4 0 8 2l117 59l15 -3q68 -14 106 -14q17 0 34 1q7 1 11 6q33 -81 114.5 -132t183.5 -51q37 0 103 17l91 -50q3 -2 7 -2q6 0 11 3q8 7 5 18l-23 77q120 95 120 208zM399 124q-16 -1 -32 -1
q-35 0 -100 13l-20 4q-5 1 -10 -1l-88 -45l23 69q3 12 -6 19q-134 93 -134 223q0 77 45 142t122 103t168 38q123 0 219.5 -66t118.5 -166q-129 -1 -219.5 -80t-90.5 -190q0 -31 9 -63q-3 1 -5 1zM875 -4q-8 -6 -5 -17l15 -50l-62 34q-4 2 -8 2q-2 0 -4 -1q-67 -17 -101 -17
q-117 0 -200 70t-83 169t83 169t200 70q115 0 198.5 -71t83.5 -168q0 -49 -30 -98t-87 -92zM613 300q-13 0 -24 -11t-11 -24t11 -24t24 -11q19 0 31.5 10.5t12.5 24.5t-12.5 24.5t-31.5 10.5zM806 300q-13 0 -24 -11t-11 -24t11 -24t24 -11q19 0 31.5 10.5t12.5 24.5
t-12.5 24.5t-31.5 10.5z" />
    <glyph glyph-name="kafei" unicode="&#xe6aa;" 
d="M975 284q-25 37 -82 37h-55l-2 58h-766q-1 -6 -1.5 -16.5t0 -42t4.5 -62t16 -70t30 -72.5l16.5 -27.5t16 -23.5t13.5 -18t14.5 -17t13 -13.5l14.5 -14.5l14 -14q26 -27 59 -42t52 -16l20 -2h201q8 0 21.5 1.5t48 16t60.5 40.5l17.5 17.5t20.5 21.5q57 3 104 20.5t73 38
t46.5 47.5t26.5 40t9 25q20 51 -5 88v0zM916 220l-1 -4q-1 -4 -3 -9.5t-13 -22t-24.5 -30t-39 -29t-56.5 -23.5q1 3 4 7.5t4 6.5q32 58 44 136h62q21 0 25 -6q5 -7 -2 -26v0zM856 -122h-804q-24 -26 66 -51q81 -22 201 -35h270q8 1 23 3t54 7.5t71.5 12.5t65.5 16.5
t47.5 21.5t5.5 25zM525 442q0 -2 -2.5 -3.5t-5.5 -2t-4 -0.5q-47 29 -59.5 67t1.5 73t47 68q6 5 20 18.5t18.5 18.5t14.5 16t14 19t9 20t7 25t2 28q0 5 7.5 6.5t9.5 -1.5q21 -30 27.5 -56t0 -45.5t-19 -38t-29.5 -34t-32 -35t-26 -39t-11.5 -46.5t11.5 -58zM350 442
q0 -2 -2 -3.5t-5 -2t-5 -0.5q-46 29 -59 67t1 73t48 68q6 6 19.5 19t18.5 18t15 16t13.5 19t9 20t7 25t1.5 28q0 5 7.5 6.5t9.5 -1.5q22 -30 28.5 -56t0 -45.5t-19 -38t-30 -34t-32.5 -35t-26 -39t-11.5 -46.5t11.5 -58v0z" />
    <glyph glyph-name="address" unicode="&#xe611;" 
d="M678 429q0 69 -48.5 117.5t-117.5 48.5t-117.5 -48.5t-48.5 -117.5t48.5 -117.5t117.5 -48.5t117.5 48.5t48.5 117.5zM383 428.5q0 53.5 37.5 91.5t91 38t91.5 -38t38 -91.5t-38 -91t-91.5 -37.5t-91 37.5t-37.5 91zM807 429q0 122 -86.5 208.5t-208.5 86.5t-208.5 -86.5
t-86.5 -208.5q0 -46 30.5 -115.5t73.5 -137.5t86.5 -128t74 -98t30.5 -37q12 14 32 39t70.5 94.5t89.5 131.5t71 133.5t32 117.5zM512 687q107 0 182.5 -75.5t75.5 -182.5q0 -40 -26.5 -102t-64.5 -122.5t-76 -115t-64.5 -88l-26.5 -33.5q-11 13 -28.5 35.5t-62 85
t-78.5 117.5t-61.5 119t-27.5 104q0 107 75.5 182.5t182.5 75.5zM642 31q-11 -16 -23 -32q60 -7 96 -20t36 -29q0 -23 -70 -39.5t-169 -16.5t-169.5 16.5t-70.5 39.5q0 16 36.5 29t96.5 20l-24 32q-66 -12 -106 -34t-40 -47q0 -39 81 -66t195.5 -27t195.5 27t81 66
q0 25 -39.5 47t-106.5 34z" />
    <glyph glyph-name="iconfonticon10" unicode="&#xe66b;" 
d="M573 635h-127q-10 0 -17.5 -7.5t-7.5 -18t7.5 -18t17.5 -7.5h127q11 0 18.5 7.5t7.5 18t-7.5 18t-18.5 7.5zM802 711h-585q-43 0 -69 -23.5t-26 -65.5v-508q0 -37 19.5 -63.5t56.5 -34.5v-80q0 -23 12.5 -43t32.5 -20h102q20 0 38.5 21t18.5 42v64h228v-64
q0 -23 12.5 -43t32.5 -20h102q20 0 38.5 21t18.5 42v80q25 11 50.5 39t25.5 59v508q0 41 -32 65t-76 24zM351 -77h-102v77h102v-77zM783 -77h-102v77h102v-77zM859 114q0 -21 -18 -42t-39 -21h-178h-229h-178q-19 0 -31.5 20t-12.5 43v165h686v-165zM859 330h-686v292
q0 38 45 38h584q24 0 40.5 -9t16.5 -29v-292zM268.5 89q31.5 0 54 22t22.5 53.5t-22.5 54t-54 22.5t-54 -22.5t-22.5 -54t22.5 -53.5t54 -22zM268 216q21 0 36 -15t15 -36t-15 -36t-36 -15t-36 15t-15 36t15 36t36 15zM751.5 89q31.5 0 54 22t22.5 53.5t-22.5 54t-54 22.5
t-54 -22t-22.5 -54t22.5 -54t54 -22zM751 216q21 0 36 -15t15 -36t-15 -36t-36 -15t-36 15t-15 36t15 36t36 15z" />
    <glyph glyph-name="phone-line" unicode="&#xe6ed;" 
d="M900 115q6 -6 13 -11q29 -24 41 -38v0v0v0q3 -4 5 -6q2 -3 4 -4q0 -1 1 -2q1 -2 2 -3l6 -9v-1q15 -30 -4 -71q-18 -39 -57 -75q-81 -75 -154 -75q-11 0 -21 2q-74 9 -198 78q-133 73 -232.5 167.5t-176.5 220.5q-73 118 -83 189q-6 46 21 96q25 44 70 81q1 1 3 2.5t2 2.5
q42 34 75 46q17 8 32 8t30 -6v-1q5 -2 13 -6q35 -17 70 -64q23 -31 40 -59q21 -36 35 -68l1 -1l2 -7q14 -36 -14 -62q0 -1 -2 -3l-1 -1l-1 -1q-1 0 -3 -2q-4 -3 -5 -4h-1q-11 -8 -19 -12l-12 -8h-1q-11 -6 -32 -15q-19 -7 -31 -13q-11 -6 -14.5 -20.5t0.5 -19.5
q31 -68 122 -155q63 -60 157 -113q8 -5 17 -5q11 0 22 7.5t17 17.5q5 10 15 29l10 20v0q10 18 18 30q5 7 8 10q11 16 30 22q10 4 22 4q16 0 27 -6l21 -10v0q1 -1 4 -3q5 -2 10 -6q16 -10 33 -21q3 -2 7 -5zM720 153q-6 -7 -20 -32q-3 -5 -10 -18q-10 -20 -16 -31
q-10 -18 -30.5 -32t-43.5 -14q-20 0 -37 10q-98 56 -165 119q-97 92 -131 168q-10 22 -3 48q9 32 36 46q14 6 34 14q18 7 26 12t14 9q7 3 16 9l2 2q3 2 4 3l2 2v0q8 8 4 18l-1 1l-2 7q-13 30 -32 62q-16 26 -38 55q-28 39 -54 52h-1l-12 6q-6 3 -13 3t-17 -4l-1 -1
q-26 -9 -63 -40q-4 -3 -5 -4q-39 -32 -60 -70.5t-16 -69.5q9 -63 77 -174q74 -121 170 -211.5t224 -161.5q117 -65 183 -74q8 -1 16 -1q57 0 127 65q33 30 47 61q5 10 6 21t-2 16l-4 5v0v1q-3 3 -8 9q-11 12 -36 33q-40 33 -73 55q-26 17 -43 28l-20 9q-3 2 -9 2q-5 0 -9 -1
q-7 -3 -10 -8z" />
    <glyph glyph-name="kafei1" unicode="&#xe63c;" 
d="M880 314q-46 0 -82 -28v96q0 10 -7 16.5t-17 6.5h-138q-5 6 -9 14t-9 23.5t0 36t21 42.5q28 38 31.5 77t-7 63.5t-26.5 40.5q-7 7 -17 7t-17 -7t-7 -17t7 -17q3 -3 6.5 -7.5t9 -16.5t6.5 -25t-4.5 -32t-19.5 -38q-53 -71 -21 -144h-132q-26 39 4 84q20 31 22.5 62t-6 50
t-20.5 31q-7 6 -16.5 6t-16.5 -7t-7 -17t7 -16q3 -4 7.5 -10.5t4.5 -28t-15 -44.5q-35 -53 -16 -110h-134q-11 29 2 51q9 16 12 32t2 27t-5 22t-6 15t-4 6q-6 8 -15.5 9.5t-17.5 -4t-9.5 -15.5t3.5 -18q16 -21 -1 -49q-20 -35 -11 -76h-112q-10 0 -17 -6.5t-7 -16.5v-130
q0 -98 48.5 -181t131.5 -131.5t181 -48.5q109 0 198.5 60t132.5 157q18 -29 48 -45.5t64 -16.5q56 0 95.5 39.5t39.5 95t-39.5 94.5t-95.5 39zM437.5 -61q-129.5 0 -221.5 91.5t-92 221.5v106h626v-106q0 -130 -91.5 -221.5t-221 -91.5zM880.5 93q-35.5 0 -61 25.5
t-25.5 61.5t25.5 61.5t61 25.5t61 -25.5t25.5 -61.5t-25.5 -61.5t-61 -25.5z" />
    <glyph glyph-name="kafei2" unicode="&#xe612;" 
d="M469 548q-3 -20 -18 -43t-24.5 -32.5t-17.5 -15.5q-6 -5 -13 -5q-10 0 -16 7q-5 6 -4.5 14.5t7.5 14.5q13 11 28 30.5t18 36.5q2 15 -2.5 24t-18.5 23q-28 29 -32 54q-5 17 -2 33.5t6 29t10.5 25t13.5 20t13 15t10 10t5 4.5q7 5 15 3.5t13.5 -8t4 -15t-7.5 -13.5
q-14 -11 -25 -28q-22 -33 -16 -68q2 -14 22 -34q12 -12 18 -20t11 -25t2 -37zM620 548q-3 -20 -18 -43t-24.5 -32.5t-17.5 -15.5q-6 -5 -13 -5q-9 0 -16 7q-5 6 -4.5 14.5t7.5 14.5q13 11 28 30.5t18 36.5q2 15 -2.5 24t-18.5 23q-28 29 -32 54q-4 17 -1.5 33.5t5.5 29
t10.5 25t13.5 20t13 15t10 10t5 4.5q7 5 15 3.5t13.5 -8t4.5 -15t-8 -13.5q-14 -10 -25 -28q-22 -33 -16 -68q2 -14 22 -34q12 -12 18 -20t11 -25t2 -37zM318 548q-3 -20 -18 -43t-24.5 -32.5t-17.5 -15.5q-6 -5 -13 -5q-10 0 -16 7q-5 6 -4.5 14.5t6.5 14.5q14 11 29 30.5
t18 36.5q2 15 -2.5 24t-18.5 23q-28 29 -32 54q-5 17 -2 33.5t6 29t10.5 25t13 20t13 15t10.5 10t5 4.5q6 5 14.5 3.5t14 -8t4 -15t-7.5 -13.5q-14 -11 -25 -28q-22 -33 -16 -68q2 -14 22 -34q11 -12 17.5 -20t11.5 -25t2 -37zM896 344q-46 0 -81 -31v76q0 9 -6 15t-14 6
h-737q-8 0 -14 -6t-6 -15v-225q0 -94 33 -166q26 -59 73 -100q54 -48 109 -61q2 -1 5 -1h306q2 0 4 1q63 12 124 58q54 41 85 99q38 72 38 167v55q2 4 2 7q0 33 23 56.5t56 23.5t56.5 -23.5t23.5 -56.5t-23.5 -56t-56.5 -23q-8 0 -14 -6t-6 -14.5t6 -14.5t14 -6
q50 0 85.5 35.5t35.5 85t-35.5 85t-85.5 35.5zM774 161q0 -84 -33 -147q-26 -50 -72 -85q-51 -39 -107 -52h-302q-46 14 -89 51q-40 36 -63 87q-30 64 -30 149v205h696v-208z" />
    <glyph glyph-name="3" unicode="&#xe617;" 
d="M681 -143q-19 0 -37 3q-71 12 -111 55q-19 -6 -40 0q-40 -47 -121 -55q-68 -8 -116 12t-54 57q-4 28 20 51t62 38q-30 38 -44 83q-20 -24 -36.5 -35t-33.5 -7t-27 25q-14 24 -10.5 76t26.5 99q15 30 48 66q-12 24 -12 41q0 34 29 57q-3 18 -3 35q0 121 84.5 204t207.5 83
q121 0 207 -84t86 -203v-8v-25q24 -18 24 -59q0 -26 -8 -39q13 -19 40 -62l3 -5q22 -35 26.5 -91t-10.5 -85q-10 -22 -27 -26q-5 -1 -10 -1v0q-32 0 -61 41q-15 -44 -42 -80q83 -34 76 -85q-4 -33 -43 -54.5t-93 -21.5zM542 -44l9 -12q31 -41 98 -53q16 -2 32 -2q42 0 72 15
t32 33q2 15 -19 31t-58 28l-24 8l18 18q21 22 37.5 55t20.5 63l6 41l32 -48q10 -15 15.5 -22.5t14 -14t16.5 -6.5v0h4q12 8 12 59.5t-22 93.5l-3 5q-33 51 -47 70l-10 14l15 9q5 4 5 25q0 13 -2.5 20.5t-5.5 10t-9 6.5l-10 5l2 11q1 9 1 31v8q0 106 -76.5 180.5t-184.5 74.5
q-109 0 -184.5 -74t-75.5 -181q0 -18 4 -40l1 -10l-8 -6q-22 -15 -22 -36q0 -12 13 -37l5 -10l-8 -8q-36 -39 -50 -66q-19 -39 -23 -83t6 -63q4 -8 7 -9v0q12 0 50 47l33 40l4 -38q7 -65 58 -117l19 -19l-26 -8q-37 -11 -60.5 -28.5t-21.5 -32.5q3 -22 43 -35t92 -7
q76 8 105 52l5 7h13l4 -2q19 -9 33 0z" />
    <glyph glyph-name="xiaoxi1" unicode="&#xe614;" 
d="M531.5 716q-116.5 0 -215 -57t-156 -156t-57.5 -215q0 -101 46 -192l-85 -168l204 23q116 -91 264 -91q116 0 214.5 57t156 156t57.5 215t-57.5 215t-156 156t-215 57zM532 -111q-141 0 -251 88l-5 4l-161 -17l67 132l-4 7q-45 87 -45 185q0 108 53.5 200t145 145.5
t200 53.5t200 -53.5t145 -145.5t53.5 -200t-53 -200t-145 -145.5t-200 -53.5zM337 467h395v-30h-395v30zM337 314h395v-30h-395v30zM337 166h395v-30h-395v30z" />
    <glyph glyph-name="weishengjian" unicode="&#xe602;" 
d="M168 556q0 27 19.5 46t46.5 19t46 -19t19 -46t-19 -46t-46 -19t-46.5 19t-19.5 46zM234 474h-2q-65 -1 -110 -47t-45 -111v-68q0 -13 9.5 -22.5t22.5 -9.5t22.5 9.5t9.5 22.5v69q-1 34 22 61v-157v0v-272q0 -13 9 -22.5t22 -9.5t22.5 9.5t9.5 22.5v240h15v-240
q0 -13 9.5 -22.5t22.5 -9.5t22.5 9.5t9.5 22.5v272v0v157q22 -26 22 -59v-71q0 -13 9 -22.5t22.5 -9.5t22.5 9.5t9 22.5v71q-1 65 -46.5 110t-109.5 45zM943 261q-3 7 -13 30q-9 22 -14 34t-16.5 34t-20.5 35.5t-24 30.5t-30.5 26.5t-36 16t-42.5 6.5q-32 0 -59 -13
t-44.5 -29.5t-35.5 -45.5t-26 -46.5t-20 -48.5q-9 -21 -13 -30q-6 -12 -1.5 -24.5t16.5 -17.5q7 -3 13 -3q21 0 29 19q5 9 14 32q41 98 75 125l-83 -204q-9 -22 1.5 -37.5t34.5 -15.5h28v-186q0 -13 9 -22.5t22 -9.5t22.5 9.5t9.5 22.5v186h15v-186q0 -13 9.5 -22.5
t22.5 -9.5t22.5 9.5t9.5 22.5l-1 186h28q24 0 34.5 15.5t1.5 37.5l-83 204q34 -27 75 -125q8 -20 14 -32q8 -19 29 -19q6 0 13 3q12 5 16.5 17.5t-1.5 24.5zM745.5 491q26.5 0 46 19t19.5 46t-19.5 46t-46 19t-46 -19t-19.5 -46t19.5 -46t46 -19zM472 637q-7 0 -11.5 -4.5
t-4.5 -11.5v-681q0 -7 4.5 -11.5t11.5 -4.5t12 4.5t5 11.5v681q0 7 -5 11.5t-12 4.5v0z" />
    <glyph glyph-name="zaocan" unicode="&#xe605;" horiz-adv-x="1114" 
d="M1007 -101v0q-242 247 -266 270q-8 3 -22.5 10.5t-33.5 21t-32.5 35.5t-14.5 47q72 82 170 83v0q58 -1 101 36l7 7l197 249l-24 23l-241 -255l-29 28l249 249l-21 21l-250 -250l-24 23l250 250l-23 23l-250 -250l-28 28l259 242l-22 22l-238 -185q-9 -8 -12 -11
q-49 -49 -42 -119q-4 -72 -43 -125q-396 387 -611 387l-13 -13q299 -299 482 -484l-376 -376v0v0l-0.5 -0.5l-0.5 -0.5q-16 -16 -16 -40t16.5 -40.5t40 -16.5t40.5 17v0l1 1v-1q312 313 376 377q34 -34 60 -61q301 -302 303 -302v0q0 -1 1 -1q16 -17 40 -17t41 17
q16 16 16 40t-16 41h-1z" />
    <glyph glyph-name="font24" unicode="&#xe633;" 
d="M896 12v-64q0 -26 -19 -45t-45 -19h-64q-26 0 -45 19t-19 45v64h-384v-64q0 -26 -19 -45t-45 -19h-64q-26 0 -45 19t-19 45v64q-53 0 -90.5 37.5t-37.5 90.5v64q0 53 37.5 90.5t90.5 37.5v64q0 80 56 136t136 56h64v96q0 13 9.5 22.5t22.5 9.5h192q13 0 22.5 -9.5
t9.5 -22.5v-96h64q80 0 136 -56t56 -136v-64q53 0 90.5 -37.5t37.5 -90.5v-64q0 -53 -37.5 -90.5t-90.5 -37.5zM192 140q0 -26 19 -45t45 -19t45 19t19 45t-19 45t-45 19t-45 -19t-19 -45zM768 447q0 32 -22.5 54.5t-54.5 22.5h-83h-192h-83q-32 0 -54.5 -22.5t-22.5 -54.5
v-115h512v115zM768 204q-26 0 -45 -19t-19 -45t19 -45t45 -19t45 19t19 45t-19 45t-45 19z" />
    <glyph glyph-name="zuche" unicode="&#xe62d;" horiz-adv-x="1138" 
d="M948 -128v0q-44 0 -74 30.5t-30 74.5v46h-550v-42q0 -42 -34 -75q-29 -30 -75 -30q-44 0 -74.5 30.5t-30.5 74.5v46q-33 7 -56.5 35.5t-23.5 65.5v206q0 47 31 83.5t78 46.5l46 189q13 56 62 95t106 39h130v54q0 22 16.5 38.5t38.5 16.5h113q22 0 38.5 -16.5t16.5 -38.5
v-50h121q57 0 107 -39t65 -95l51 -189q50 -6 83.5 -43t33.5 -87v-206q0 -37 -24 -66t-60 -39v-46q0 -42 -33.5 -75.5t-71.5 -33.5zM252 65h638v-88q0 -25 16.5 -42t42 -17t42 17t16.5 46v88h21q25 0 44 19t19 44v206q0 38 -25 63t-63 25h-17l-4 17l-55 201q-9 41 -46.5 71
t-78.5 30h-168v96q0 4 -3 6.5t-6 2.5h-113q-3 0 -5.5 -2.5t-2.5 -6.5v-96h-181q-41 0 -78.5 -30t-47.5 -71l-54 -222h-17q-35 -3 -59.5 -28.5t-24.5 -59.5v-206q0 -25 19 -44t44 -19h21l4 -21v-67q0 -25 17 -42t42 -17t42 17q21 21 21 42v88zM927 157q-40 0 -70 30t-30 71
t30 71t70.5 30t70.5 -30t30 -71q0 -42 -28.5 -71.5t-72.5 -29.5zM927 317q-22 0 -38 -16.5t-16 -38.5t16 -38t38.5 -16t38.5 16t16 38q3 22 -13 38.5t-42 16.5zM210 157q-41 0 -71 30t-30 71t30 71t71 30t71 -30t30 -71t-30 -71t-71 -30zM210 317q-22 0 -38.5 -16.5
t-16.5 -38.5t16.5 -38t38.5 -16t38 16t16 38t-16 38.5t-38 16.5zM940 422h-755l37 180q10 48 51.5 81t91.5 33h399q50 0 91.5 -33t50.5 -81zM239 468h647l-26 126q-6 32 -36 56t-64 24h-399q-35 0 -62.5 -23t-34.5 -57z" />
    <glyph glyph-name="bangzhu-copy" unicode="&#xe61e;" 
d="M644 592q-51 47 -127 47q-82 0 -132 -43q-47 -43 -57 -122h1q-1 -2 -1 -4q0 -38 26 -36q6 1 13 11t11 20l3 10q10 67 41 96q14 13 42 20t53 7q23 0 51.5 -12.5t44.5 -28.5q15 -14 23 -41t4 -41q-5 -25 -68 -95q-12 -14 -25 -33t-16 -22q-28 -35 -41 -55q-4 -7 -7.5 -13.5
t-5 -11t-2 -9.5t-0.5 -7t0.5 -5.5l0.5 -3.5q-1 -2 -1 -4v-8.5v-7t0.5 -5t2.5 -4.5t5 -2t7 -1q26 0 27 28q17 38 47 78q23 32 35 45q52 52 69 82q13 24 13 68q0 36 -7 59t-30 44zM511 830q-90 0 -172.5 -35t-142 -94.5t-94.5 -141.5t-35 -172.5t35 -172.5t94.5 -141.5
t142 -94.5t172.5 -35t172 35t141.5 94.5t94.5 141.5t35 172.5t-35 172.5t-94.5 141.5t-141.5 94.5t-172 35zM510.5 -16q-109.5 0 -202 54t-146.5 146.5t-54 202t54 202t146.5 146.5t202 54t202.5 -54t146.5 -146.5t53.5 -202t-53.5 -202t-146.5 -146.5t-202.5 -54zM497 134
q-14 0 -24 -10t-10 -24t10 -24t24 -10t24 10t10 24t-10 24t-24 10z" />
    <glyph glyph-name="jinzhixiyan" unicode="&#xe618;" 
d="M759 370q1 -1 2 -1h1q2 1 2 3l-1 1q-1 4 -2 11q-2 7 -3 13q-2 9 -3 17v9v10q1 10 4 19q3 10 9 17q2 3 3 4l5 5l2 3l3 3q3 4 4 6q9 13 13 28q3 14 3 29q0 13 -3 26q-3 11 -7 22q-7 16 -17 29q-4 6 -8 10q-1 1 -3 0t-2 -3q2 -7 3 -12q4 -16 6 -30q2 -10 2 -19q0 -11 -1 -22
t-4 -21q-4 -10 -10 -19q-1 -2 -3 -4l-3 -4l-4 -5q-3 -4 -5 -7q-5 -6 -8 -13.5t-4 -14.5q-3 -13 -1 -28q1 -11 5 -23q6 -16 16 -30q6 -7 9 -9zM736 548q0 13 -3 26l-4 12l-4 10q-4 9 -8 17q-5 6 -9 12q-4 5 -9 9q-1 1 -3 0t-1 -3v0q1 -5 3 -11q2 -8 4 -14q2 -9 3 -16
q1 -6 1 -10q1 -5 1 -10q0 -10 -1 -21q-2 -22 -14 -39q-1 -2 -3 -5l-2 -2l-4 -5q0 -1 -1 -2l-1 -1q-3 -4 -4 -7q-8 -13 -11 -28q-1 -7 -1 -14t1 -13q1 -11 4 -23q3 -9 7 -17q4 -7 8 -13q4 -7 7 -10q1 -1 2 -1h2q1 1 1 3v0l-2 12q-3 17 -4 30v19q1 11 4 20q3 10 9 18q1 2 3 4
l6 7l2 3q3 4 5 7q8 13 12 27t4 29zM828.5 702.5q-63.5 63.5 -145.5 97.5t-172 34t-172 -34t-146 -97.5t-98 -145.5t-34 -172t34 -172t98 -145.5t146 -97.5t172 -34t172 34t145.5 97.5t97.5 145.5t34 172t-34 172t-97.5 145.5zM511 1q-105 0 -193 51.5t-139.5 140
t-51.5 192.5q0 109 57 202l237 -237h-191q-11 0 -19.5 -8t-8.5 -20v-61q0 -11 8.5 -19.5t19.5 -8.5h308l174 -174q-92 -58 -201 -58zM806 140l-96 96l-1 1q15 8 15 26v58q0 12 -8 20.5t-20 8.5h-2q-12 0 -20 -8.5t-8 -20.5v-41l-5 5l-17 17v20q0 12 -8 20t-20 8h-21
l-329 330q106 89 245 89q104 0 192 -51.5t139.5 -140t51.5 -192.5q0 -138 -88 -245zM775 350h-2q-12 0 -20 -8.5t-8 -20.5v-58q0 -12 8 -20.5t20 -8.5h2q12 0 20.5 8.5t8.5 20.5v58q0 12 -8.5 20.5t-20.5 8.5z" />
    <glyph glyph-name="pet" unicode="&#xe621;" horiz-adv-x="1128" 
d="M1034 398l-124 271q-24 74 -79.5 119.5t-124.5 45.5h-301q-73 0 -131.5 -52.5t-78.5 -133.5l-114 -250q-31 -69 -12 -143.5t77 -111.5q22 -14 48 -19q20 -83 78.5 -136t132.5 -53h301q74 0 132.5 53t78.5 135q28 5 52 20q58 37 77 111.5t-12 143.5v0zM170 197
q-39 25 -52 75.5t8 96.5l60 130v-304v-3v-3q-9 4 -16 8v0zM874 195q0 -82 -49 -140.5t-119 -58.5h-301q-69 0 -118.5 58.5t-49.5 140.5v379q0 82 49.5 140.5t118.5 58.5h301q70 0 119 -58.5t49 -140.5v-379zM997 272q-13 -50 -52 -75q-9 -5 -20 -9q0 1 0.5 3.5t0.5 3.5v312
l62 -138q21 -46 9 -97v0zM339 528q-21 0 -36.5 -18t-15.5 -43.5t15.5 -43t37 -17.5t36.5 17.5t15 43t-15 43.5t-37 18v0zM772 528q-21 0 -36 -18t-15 -43.5t15 -43t36.5 -17.5t36.5 17.5t15 43t-15 43.5t-37 18v0zM672 147q-35 0 -60.5 30t-25.5 72q0 5 -1 10q29 21 29 60
q0 28 -17 48.5t-41 20.5t-41 -20.5t-17 -48.5q0 -39 29 -60q-2 -5 -2 -10q0 -42 -25 -72t-61 -30q-10 0 -17.5 -9t-7.5 -21.5t7.5 -21.5t17.5 -9q37 0 67.5 21t49.5 56q18 -35 49 -56t67 -21q11 0 18.5 9t7.5 21.5t-7.5 21.5t-18.5 9v0z" />
    <glyph glyph-name="lunchuan" unicode="&#xe68b;" 
d="M941 -25q-44 0 -103 28q-52 25 -87 28l90 199q9 21 2 42.5t-27 33.5l-32 19v293q0 9 -6 14.5t-14 5.5h-116v110q0 9 -6 14.5t-14 5.5h-94v44q0 9 -6 14.5t-14.5 5.5t-14 -5.5t-5.5 -14.5v-44h-94q-9 0 -14.5 -5.5t-5.5 -14.5v-110h-116q-9 0 -14.5 -5.5t-5.5 -14.5v-292
l-31 -18q-21 -12 -27.5 -35t4.5 -44l101 -198q-30 -3 -80 -25q-22 -10 -35.5 -15t-38.5 -10.5t-52 -5.5q-9 0 -14.5 -5.5t-5.5 -14t5.5 -14.5t14.5 -6q31 0 59.5 6t43.5 12t40 17q48 21 75 21q31 0 94 -25q73 -30 116 -30q42 0 121 29q70 26 105 26q31 0 81 -24
q68 -32 121 -32q8 0 14 6t6 14.5t-6 14t-14 5.5zM420 728h188v-90h-188v90zM284 598h116h228h116v-249l-220 130q-10 6 -20 0l-220 -129v248zM620 2q-72 -26 -107 -26t-101 27q-48 19 -74 25l-113 219q-3 7 -1 14.5t9 11.5l259 152v-233q0 -8 5.5 -14t14 -6t14.5 6t6 14v236
l264 -157q15 -9 8 -25l-97 -218q-30 -4 -87 -26zM404 552h-64q-9 0 -14.5 -5.5t-5.5 -14t5.5 -14.5t14.5 -6h64q8 0 14 6t6 14.5t-6 14t-14 5.5zM708 532.5q0 8.5 -6 14t-14 5.5h-190q-9 0 -14.5 -5.5t-5.5 -14t5.5 -14.5t14.5 -6h190q8 0 14 6t6 14.5z" />
    <glyph glyph-name="ditie" unicode="&#xe603;" 
d="M742 143q-6 -5 -14 -5q-10 0 -16 8q-6 7 -5 16t8 15q57 46 88.5 111.5t31.5 138.5q0 88 -43.5 162t-118 117.5t-161.5 43.5t-161.5 -43.5t-118 -117.5t-43.5 -162q0 -73 31.5 -138.5t88.5 -111.5q7 -6 8 -15t-4.5 -15.5t-14.5 -7.5t-16 4q-64 53 -100 127t-36 157
q0 99 49 183.5t133.5 133.5t183.5 49t183.5 -49t133.5 -133.5t49 -183.5q0 -83 -35.5 -157t-100.5 -127v0zM512 749q-9 0 -15 6.5t-6 15.5v43q0 9 6 15t15 6t15.5 -6t6.5 -15v-43q0 -9 -6.5 -15.5t-15.5 -6.5v0zM577 405h-129q-9 0 -15.5 6.5t-6.5 15.5t6.5 15t15.5 6h129
q8 0 14.5 -6t6.5 -15t-6.5 -15.5t-14.5 -6.5v0zM512 -67q-9 0 -15 6t-6 15v473q0 9 6 15t15 6t15.5 -6t6.5 -15v-473q0 -9 -6.5 -15t-15.5 -6v0zM748 -67h-472q-9 0 -15.5 6t-6.5 15t6.5 15.5t15.5 6.5h472q9 0 15.5 -6.5t6.5 -15.5t-6.5 -15t-15.5 -6v0z" />
    <glyph glyph-name="xinxi" unicode="&#xe60f;" 
d="M512.5 -62q-89.5 0 -171 33.5t-145 97t-97 145t-33.5 171t33.5 171t97 144.5t145 97t171 34t171 -34t145 -97t97 -144.5t33.5 -171t-33.5 -171t-97 -145t-145 -97t-171 -33.5zM512.5 790q-110.5 0 -203.5 -54.5t-147.5 -148t-54.5 -203.5t54.5 -203.5t147.5 -147.5
t203.5 -54t203.5 54t147.5 147.5t54.5 203.5t-54.5 203.5t-147.5 148t-203.5 54.5zM510.5 120q-13.5 0 -23.5 9.5t-10 23.5v291q0 13 10 23t23.5 10t23 -10t9.5 -23v-291q0 -14 -9.5 -23.5t-23 -9.5zM511 600zM466 599.5q0 18.5 13.5 32t32 13.5t31.5 -13.5t13 -32t-13 -32
t-31.5 -13.5t-32 13.5t-13.5 32z" />
    <glyph glyph-name="chongwu" unicode="&#xe607;" 
d="M150 781q-9 -23 -28 -41t-38 -27t-40 -14t-31 -6.5t-13 -1.5v-64q17 -14 43 -35.5t78 -57t71 -35.5t67 32t88 64t39 32l62 -64q-42 -35 -82 -64q-17 -13 -44.5 -29t-46.5 -25l-19 -10q2 -5 4.5 -15.5t8.5 -39.5t9.5 -56.5t2.5 -61t-9 -57.5q-12 -40 -32 -94t-34 -89
l-14 -35q-1 -2 -1.5 -6.5t1 -15.5t7 -19.5t20 -15.5t37.5 -7q15 0 31 16t25 32l8 16q27 68 66 127q18 27 34 43t23 18l7 3h191q40 -27 64 -64q20 -29 39 -66.5t24 -60.5q6 -26 22.5 -45t41.5 -19q26 0 45 19t19 45q0 2 -20 86.5t-36 177t-8 120.5q11 38 22.5 63.5t18 34.5
t23.5 30q9 11 42.5 37t59.5 50.5t26 40.5q0 17 -13.5 23.5t-27.5 4.5t-21 -6q-11 -7 -66 -46q-28 -20 -97 -59.5t-95 -44.5q-32 -5 -54.5 -5.5t-73.5 5.5q-29 4 -61 20t-49 30l-18 14l193 192l-65 64l-190 -192l-66 256q-35 -4 -73 -19q-78 -30 -97 -83z" />
    <glyph glyph-name="zixingche" unicode="&#xe6c0;" 
d="M836 527q-34 0 -67 -12l-84 166h66v34h-121l34 -68h-295l-18 34h59v34h-114l38 -76v-0.5v-0.5l-73 -126q-35 15 -73 15q-78 0 -133 -55t-55 -132.5t55 -132.5t133 -55q73 0 126.5 49t60.5 121h139q10 0 15 9l158 272l52 -103q-42 -26 -66 -68.5t-24 -91.5q0 -78 55 -133
t132.5 -55t132.5 55t55 132.5t-55 132.5t-133 55zM353 603l124 -246h-102q-4 43 -26 79.5t-58 59.5zM340 357h-129l63 109q59 -40 66 -109zM188 186q-64 0 -109 45t-45 108.5t45 108.5t109 45q29 0 56 -11l-77 -134q-5 -9 0 -17.5t15 -8.5h158q-6 -57 -49.5 -96.5
t-102.5 -39.5zM510 366l-124 247h267zM836.5 186q-63.5 0 -108.5 45t-45 109q0 40 19 74t52 55l72 -143l31 16l-72 142q25 9 51 9q64 0 109 -45t45 -108.5t-45 -108.5t-108.5 -45z" />
    <glyph glyph-name="jisu" unicode="&#xe604;" 
d="M396 -109q-6 0 -11 2q-22 9 -20 33l34 359l-135 -1q-55 0 -74 38t15 82l352 463q13 18 34.5 10.5t21.5 -30.5l-3 -310h149q55 0 73.5 -38t-16.5 -81l-395 -514q-9 -13 -25 -13zM434 348q13 0 22.5 -10t8.5 -24l-27 -285l328 428q8 9 9 15l-2 0.5t-6 1t-8 0.5h-181
q-13 0 -22 9t-9 23l2 247l-294 -387q-9 -12 -8 -17h1.5t6 -1t9.5 -1l169 1h1z" />
    <glyph glyph-name="shenduyou" unicode="&#xe646;" 
d="M641 304q-1 23 42 36t88 14l44 1q-6 1 -15.5 3t-37 4t-51.5 1t-52.5 -9t-46.5 -23q-23 -19 -27 -37t8.5 -33t28 -26.5t35 -23.5t25.5 -18q9 -9 13 -19t1.5 -20.5t-13 -19t-34.5 -14.5t-59 -7q-54 -1 -106 0.5t-77 3.5l-25 2q-24 -101 -46 -154q235 -7 329 15
q50 12 91 38.5t61.5 64t-1.5 80.5q-14 29 -44 51t-57.5 32.5t-49.5 25t-24 32.5zM297.5 697q-96.5 0 -165 -68.5t-68.5 -165.5q0 -35 19.5 -74t49.5 -80t61.5 -86.5t60.5 -110.5t42 -136q18 69 49.5 134t62 110.5t58.5 87t45.5 81t17.5 74.5q0 97 -68 165.5t-164.5 68.5z
M297 340q-51 0 -87 36t-36 87t36 87.5t87 36.5t87.5 -36.5t36.5 -87.5t-36.5 -87t-87.5 -36zM959 667q0 57 -40 97.5t-97.5 40.5t-98 -40.5t-40.5 -97.5q0 -25 18 -56.5t40.5 -59.5t46.5 -75t33 -98q13 50 38 97t46.5 75.5t37.5 59.5t16 57zM748 666.5q0 30.5 21.5 52
t52 21.5t51.5 -21.5t21 -52t-21 -51.5t-51.5 -21t-52 21t-21.5 51.5z" />
    <glyph glyph-name="daoyoufuwu" unicode="&#xe667;" 
d="M967 344l-110 382q-7 22 -29.5 24.5t-33.5 -17.5v0l-198 -371q-35 21 -73 33q42 26 67 69.5t25 94.5q0 79 -56 135t-135 56t-135 -56t-56 -135q0 -51 24.5 -94t66.5 -69q-107 -32 -175 -122t-68 -204v-67h681v67q0 74 -29.5 139t-81.5 112l46 86l223 -104l1 -1q4 -2 9 -2
q2 -1 5 -1v0q14 1 24 10.5t10 23.5q0 6 -2 11z" />
    <glyph glyph-name="7" unicode="&#xe615;" 
d="M927 65h-833q-31 0 -52.5 21.5t-21.5 52.5v12q0 30 21.5 52t52.5 22h833q31 0 52.5 -22t21.5 -52v-12q0 -31 -21.5 -52.5t-52.5 -21.5zM94 195q-19 0 -31.5 -13t-12.5 -31v-12q0 -18 12.5 -31t31.5 -13h833q19 0 32 13t13 31v12q0 18 -13 31t-32 13h-833zM927 303h-833
q-31 0 -52.5 21.5t-21.5 51.5v13q0 30 21.5 51.5t52.5 21.5h833q31 0 52.5 -21.5t21.5 -51.5v-13q0 -30 -21.5 -51.5t-52.5 -21.5zM94 433q-19 0 -31.5 -13t-12.5 -31v-12q0 -19 12.5 -32t31.5 -13h833q19 0 32 13t13 32v12q0 18 -13 31t-32 13h-833zM189 -51q-48 0 -79 28
q-34 31 -34 89q0 6 4.5 10.5t10.5 4.5t10.5 -4.5t4.5 -10.5q0 -45 24 -67q22 -21 62 -21h0.5h0.5h623q57 0 82 29q10 12 14 29.5t3.5 25.5t-0.5 12q-1 6 2.5 11t9.5 6t11 -2.5t6 -9.5q1 -5 1.5 -16t-5 -34.5t-20.5 -40.5q-33 -39 -104 -39h-622h-2.5h-2.5v0zM104 445
q-13 0 -15 13q0 6 -0.5 17.5t2 41.5t10 58.5t26 65.5t45.5 67q111 125 347 125q7 0 11 -4.5t4 -10.5t-4 -10.5t-11 -4.5q-222 0 -325 -114q-25 -28 -41.5 -62t-23 -60t-9.5 -54t-2.5 -37t1.5 -15q0 -6 -3.5 -11t-9.5 -5h-2v0zM923 445h-2q-6 0 -9.5 5t-2.5 11q0 5 0.5 15.5
t-1.5 37.5t-8.5 53.5t-22.5 60.5t-40 61q-101 114 -323 114q-6 0 -10.5 4.5t-4.5 10.5t4.5 10.5t10.5 4.5q235 0 345 -124q27 -31 45 -68t24.5 -65.5t9 -58.5t2 -41.5t-1.5 -17.5q-2 -13 -15 -13zM462 587.5q0 -6.5 4.5 -11.5t11.5 -5t11.5 5t4.5 11.5t-4.5 11t-11.5 4.5
t-11.5 -4.5t-4.5 -11zM311 544.5q0 -6.5 5 -11t11.5 -4.5t11 4.5t4.5 11t-4.5 11t-11 4.5t-11.5 -4.5t-5 -11zM295 669.5q0 -6.5 5 -11t11.5 -4.5t11 4.5t4.5 11t-4.5 11.5t-11 5t-11.5 -5t-5 -11.5zM446 711.5q0 -6.5 5 -11.5t11.5 -5t11 5t4.5 11.5t-4.5 11t-11 4.5
t-11.5 -4.5t-5 -11zM194 587.5q0 -6.5 4.5 -11.5t11 -5t11.5 5t5 11.5t-5 11t-11.5 4.5t-11 -4.5t-4.5 -11zM584 701.5q0 -6.5 4.5 -11.5t11 -5t11.5 5t5 11.5t-5 11t-11.5 4.5t-11 -4.5t-4.5 -11zM584 544.5q0 -6.5 4.5 -11t11 -4.5t11.5 4.5t5 11t-5 11t-11.5 4.5
t-11 -4.5t-4.5 -11zM735 528.5q0 -6.5 4.5 -11t11.5 -4.5t11.5 4.5t4.5 11t-4.5 11t-11.5 4.5t-11.5 -4.5t-4.5 -11zM650 603.5q0 -6.5 4.5 -11.5t11 -5t11.5 5t5 11.5t-5 11t-11.5 4.5t-11 -4.5t-4.5 -11zM782 622.5q0 -6.5 5 -11t11.5 -4.5t11 4.5t4.5 11t-4.5 11.5t-11 5
t-11.5 -5t-5 -11.5zM703 701.5q0 -6.5 4.5 -11.5t11.5 -5t11.5 5t4.5 11.5t-4.5 11t-11.5 4.5t-11.5 -4.5t-4.5 -11zM95 202q-6 0 -10 4.5t-4 10.5v101q0 6 4 10.5t10 4.5h831q6 0 10.5 -4.5t4.5 -10.5v-88q0 -6 -4.5 -10.5t-10.5 -4.5t-10.5 4.5t-4.5 10.5v73h-801v-86
q0 -6 -4 -10.5t-11 -4.5v0z" />
    <glyph glyph-name="jisu1" unicode="&#xe629;" 
d="M767 405q19 24 11 41.5t-39 17.5h-147l40 313q6 46 -10.5 53t-44.5 -30l-320 -408q-19 -24 -11 -41.5t39 -17.5h147l-47 -369q-3 -23 5 -26.5t23 14.5l354 453v0v0z" />
    <glyph glyph-name="chuang" unicode="&#xe60a;" 
d="M988 327q-11 27 -28 48v338q0 19 -13 32.5t-31 13.5h-803q-19 0 -31.5 -13.5t-12.5 -32.5v-339q-17 -21 -28 -47q-27 -58 -27 -138v-14v-148q0 -6 4.5 -10t10.5 -4h97q6 0 10.5 4t4.5 10v57h746v-57q0 -6 4 -10t10 -4h98q6 0 10 4t4 10l1 148v0v14q0 80 -26 138zM119 688
q0 15 15 15h764q6 0 10 -4.5t4 -10.5v-290q-2 2 -4 3q-5 5 -21 12t-18 8v62q0 45 -20.5 65t-65.5 20h-197q-52 0 -72 -27q-20 27 -72 27h-202q-44 0 -62.5 -20t-18.5 -65v-62q-3 -2 -17 -8t-20 -10h-3v285zM831 475v-24q-34 13 -63 13h-232v12q0 31 11.5 39.5t46.5 8.5h180
q35 0 46 -8.5t11 -40.5zM490 474v-8h-237q-21 0 -55 -14v22q0 33 8.5 41.5t41.5 8.5h186q35 0 45.5 -9t10.5 -41zM124 352q24 30 48 41t58 15l281 8l284 -8q24 -2 44 -10t28 -14t20 -16q36 -33 49.5 -60.5t22.5 -88.5h-888q0 28 13 61.5t23 48.5t17 23zM963 57h-35v60
q0 6 -4 10.5t-10 4.5h-802q-6 0 -10 -4.5t-4 -10.5v-60h-31v118h896v-118z" />
    <glyph glyph-name="chengshi" unicode="&#xe60b;" horiz-adv-x="1032" 
d="M587 699h-63q-8 0 -13.5 -5.5t-5.5 -12.5v-64q0 -8 5.5 -13.5t13.5 -5.5h63q8 0 13.5 5.5t5.5 13.5v64q0 7 -5.5 12.5t-13.5 5.5zM587 497h-63q-8 0 -13.5 -5.5t-5.5 -13.5v-63q0 -7 5.5 -12.5t13.5 -5.5h63q8 0 13.5 5.5t5.5 12.5v63q0 8 -5.5 13.5t-13.5 5.5zM996 -58
h-62v286q0 38 -29.5 65.5t-69.5 27.5h-53v469q0 36 -25.5 61t-61.5 25h-506q-37 0 -62.5 -25t-25.5 -61v-848h-65q-36 0 -36 -26v1q0 -25 36 -25h960q36 0 36 28v-2q0 24 -36 24v0zM706 -44q0 -6 -4.5 -10t-10.5 -4h-96q-6 0 -10.5 4t-4.5 10v124q0 6 4.5 10t10.5 4h96
q6 0 10.5 -4t4.5 -10v-124v0zM706 159q0 -6 -4.5 -10.5t-10.5 -4.5h-96q-6 0 -10.5 4.5t-4.5 10.5v96q0 6 4.5 10.5t10.5 4.5h96q6 0 10.5 -4t4.5 -10v-97v0zM732 321h-110q-39 0 -65.5 -27t-26.5 -66v-286h-378v826q0 24 17 41t41 17h464q24 0 41 -17t17 -41v-447v0z
M883 -44q0 -6 -4 -10t-10 -4h-97q-6 0 -10.5 4t-4.5 10v124q0 6 4.5 10t10.5 4h97q6 0 10 -4t4 -10v-124v0zM883 159q0 -6 -4 -10.5t-10 -4.5h-97q-6 0 -10.5 4.5t-4.5 10.5v97q0 6 4.5 10t10.5 4h97q6 0 10 -4t4 -10v-97zM360 497h-64q-7 0 -13 -5.5t-6 -13.5v-63
q0 -7 6 -12.5t13 -5.5h64q7 0 13 5.5t6 12.5v63q0 8 -6 13.5t-13 5.5zM360 699h-64q-7 0 -13 -5.5t-6 -12.5v-64q0 -8 6 -13.5t13 -5.5h64q7 0 13 5.5t6 13.5v64q0 7 -6 12.5t-13 5.5zM360 295h-64q-7 0 -13 -5.5t-6 -12.5v-64q0 -8 6 -13.5t13 -5.5h64q7 0 13 5.5t6 13.5
v64q0 7 -6 12.5t-13 5.5z" />
    <glyph glyph-name="renminbi" unicode="&#xe609;" 
d="M788 833h-66l-211 -375l-212 375h-66l222 -392h-230v-49h254v-149h-254v-49h254v-258h66v258h257v49h-257v149h257v49h-234z" />
    <glyph glyph-name="zaocan1" unicode="&#xe6c9;" horiz-adv-x="1025" 
d="M1021 390v4q0 41 -40 76t-113 61q0 -20 -9 -38q60 -21 92.5 -47.5t32.5 -53.5t-35 -54t-96 -49t-151 -35.5t-191 -13.5t-191 13.5t-151 35.5t-96.5 49t-35.5 54.5t35.5 54.5t96.5 49t151 35.5t191 13.5q108 0 204 -16q0 20 8 37q-99 16 -212 16q-143 0 -259.5 -24.5
t-183 -67.5t-67.5 -96h-0.5t-0.5 1l3 -33q9 -109 52 -195.5t111.5 -141.5t156.5 -84t189 -29q100 0 188.5 30t157.5 87t112.5 144.5t50.5 195.5l2 21h-2v0zM512 -51q-88 0 -164.5 21.5t-139 65t-104.5 114t-58 162.5q60 -50 184 -79t281 -29q159 0 283.5 30t183.5 80
q-15 -91 -58 -162t-105.5 -115t-139 -66t-163.5 -22zM321.5 379q16.5 0 23.5 13.5t0 27t-23.5 13.5t-23.5 -13.5t0 -27t23.5 -13.5zM718.5 272q16.5 0 23.5 13.5t0 27t-23.5 13.5t-23.5 -13.5t0 -27t23.5 -13.5zM498 345q-17 0 -23.5 -14t0 -27.5t23.5 -13.5t24 13.5t0 27.5
t-24 14zM537 520q-17 0 -23.5 -13.5t0 -27.5t23.5 -14q22 0 26 22q4 23 -14 31q-6 2 -12 2zM127 372q17 0 23.5 13.5t0 27.5t-23.5 14t-24 -14t0 -27.5t24 -13.5zM618 399q-9 -15 -15 -32q16 2 44 8q1 1 1.5 3t1.5 3q22 37 49 59t47 22q7 0 12 -3q17 -10 16 -45
q-1 -11 -5 -28q18 -3 35 -11q6 21 6 38q2 43 -20 66q3 2 4 5l172 300q4 7 2 14t-8.5 11t-14 2t-10.5 -9l-173 -300q-1 -3 -2 -5q-7 1 -14 1v0q-32 0 -67 -27.5t-61 -71.5zM302 631q-3 -7 -0.5 -14t8.5 -11q4 -2 9 -2q11 0 16 10q16 31 4 74q-8 26 -1 41q3 6 0.5 13.5
t-9.5 10.5t-14 0.5t-10 -9.5q-13 -27 -1 -66q8 -29 -2 -47zM234 630q-3 -7 -0.5 -14t9.5 -10q4 -2 8 -2q11 0 16 11q11 22 13.5 45.5t0 36.5t-8.5 34l-6 27t-1 24t7 29q3 7 0.5 14t-9.5 10t-14.5 0t-10.5 -10q-8 -19 -9.5 -39.5t1 -32t7.5 -31.5q5 -19 7 -29.5t0 -28
t-10 -34.5zM1021 390v4q0 41 -40 76t-113 61q0 -20 -9 -38q60 -21 92.5 -47.5t32.5 -53.5t-35 -54t-96 -49t-151 -35.5t-191 -13.5t-191 13.5t-151 35.5t-96.5 49t-35.5 54.5t35.5 54.5t96.5 49t151 35.5t191 13.5q108 0 204 -16q0 20 8 37q-99 16 -212 16
q-143 0 -259.5 -24.5t-183 -67.5t-67.5 -96h-0.5t-0.5 1l3 -33q9 -109 52 -195.5t111.5 -141.5t156.5 -84t189 -29q100 0 188.5 30t157.5 87t112.5 144.5t50.5 195.5l2 21h-2v0zM512 -51q-88 0 -164.5 21.5t-139 65t-104.5 114t-58 162.5q60 -50 184 -79t281 -29
q159 0 283.5 30t183.5 80q-15 -91 -58 -162t-105.5 -115t-139 -66t-163.5 -22zM321.5 379q16.5 0 23.5 13.5t0 27t-23.5 13.5t-23.5 -13.5t0 -27t23.5 -13.5zM718.5 272q16.5 0 23.5 13.5t0 27t-23.5 13.5t-23.5 -13.5t0 -27t23.5 -13.5zM498 345q-17 0 -23.5 -14t0 -27.5
t23.5 -13.5t24 13.5t0 27.5t-24 14zM537 520q-17 0 -23.5 -13.5t0 -27.5t23.5 -14q22 0 26 22q4 23 -14 31q-6 2 -12 2zM127 372q17 0 23.5 13.5t0 27.5t-23.5 14t-24 -14t0 -27.5t24 -13.5zM618 399q-9 -15 -15 -32q16 2 44 8q1 1 1.5 3t1.5 3q22 37 49 59t47 22q7 0 12 -3
q17 -10 16 -45q-1 -11 -5 -28q18 -3 35 -11q6 21 6 38q2 43 -20 66q3 2 4 5l172 300q4 7 2 14t-8.5 11t-14 2t-10.5 -9l-173 -300q-1 -3 -2 -5q-7 1 -14 1v0q-32 0 -67 -27.5t-61 -71.5zM302 631q-3 -7 -0.5 -14t8.5 -11q4 -2 9 -2q11 0 16 10q16 31 4 74q-8 26 -1 41
q3 6 0.5 13.5t-9.5 10.5t-14 0.5t-10 -9.5q-13 -27 -1 -66q8 -29 -2 -47zM234 630q-3 -7 -0.5 -14t9.5 -10q4 -2 8 -2q11 0 16 11q11 22 13.5 45.5t0 36.5t-8.5 34l-6 27t-1 24t7 29q3 7 0.5 14t-9.5 10t-14.5 0t-10.5 -10q-8 -19 -9.5 -39.5t1 -32t7.5 -31.5q5 -19 7 -29.5
t0 -28t-10 -34.5z" />
  </font>
</defs>
</svg>
